<mxfile modified="2024-06-30T23:38:38.087Z" host="Electron" agent="Mozilla/5.0 (Macintosh; Intel Mac OS X 10_15_7) AppleWebKit/537.36 (KHTML, like Gecko) draw.io/21.6.5 Chrome/114.0.5735.243 Electron/25.3.1 Safari/537.36" etag="kNBJiQIUXjHn9KsUjYLc" version="21.6.5" type="device">
  <diagram id="Ht1M8jgEwFfnCIfOTk4-" name="Page-1">
    <mxGraphModel dx="1774" dy="1150" grid="1" gridSize="10" guides="1" tooltips="1" connect="1" arrows="1" fold="1" page="1" pageScale="1" pageWidth="827" pageHeight="1169" math="0" shadow="0">
      <root>
        <mxCell id="0" />
        <mxCell id="1" parent="0" />
        <mxCell id="UEzPUAAOIrF-is8g5C7q-2" value="AWS Cloud" style="points=[[0,0],[0.25,0],[0.5,0],[0.75,0],[1,0],[1,0.25],[1,0.5],[1,0.75],[1,1],[0.75,1],[0.5,1],[0.25,1],[0,1],[0,0.75],[0,0.5],[0,0.25]];outlineConnect=0;gradientColor=none;html=1;whiteSpace=wrap;fontSize=12;fontStyle=0;shape=mxgraph.aws4.group;grIcon=mxgraph.aws4.group_aws_cloud_alt;strokeColor=#232F3E;fillColor=none;verticalAlign=top;align=left;spacingLeft=30;fontColor=#232F3E;dashed=0;container=1;pointerEvents=0;collapsible=0;recursiveResize=0;" parent="1" vertex="1">
          <mxGeometry x="10" y="175" width="1060" height="505" as="geometry" />
        </mxCell>
        <mxCell id="Eg83K6MYHJUfDx5m-Tr2-1" value="VPC" style="points=[[0,0],[0.25,0],[0.5,0],[0.75,0],[1,0],[1,0.25],[1,0.5],[1,0.75],[1,1],[0.75,1],[0.5,1],[0.25,1],[0,1],[0,0.75],[0,0.5],[0,0.25]];outlineConnect=0;gradientColor=none;html=1;whiteSpace=wrap;fontSize=12;fontStyle=0;container=1;pointerEvents=0;collapsible=0;recursiveResize=0;shape=mxgraph.aws4.group;grIcon=mxgraph.aws4.group_vpc;strokeColor=#248814;fillColor=none;verticalAlign=top;align=left;spacingLeft=30;fontColor=#AAB7B8;dashed=0;" vertex="1" parent="UEzPUAAOIrF-is8g5C7q-2">
          <mxGeometry x="28" y="105" width="1000" height="365" as="geometry" />
        </mxCell>
        <mxCell id="Eg83K6MYHJUfDx5m-Tr2-2" value="Private subnet" style="points=[[0,0],[0.25,0],[0.5,0],[0.75,0],[1,0],[1,0.25],[1,0.5],[1,0.75],[1,1],[0.75,1],[0.5,1],[0.25,1],[0,1],[0,0.75],[0,0.5],[0,0.25]];outlineConnect=0;gradientColor=none;html=1;whiteSpace=wrap;fontSize=12;fontStyle=0;container=1;pointerEvents=0;collapsible=0;recursiveResize=0;shape=mxgraph.aws4.group;grIcon=mxgraph.aws4.group_security_group;grStroke=0;strokeColor=#147EBA;fillColor=#E6F2F8;verticalAlign=top;align=left;spacingLeft=30;fontColor=#147EBA;dashed=0;" vertex="1" parent="Eg83K6MYHJUfDx5m-Tr2-1">
          <mxGeometry x="560" y="40" width="400" height="280" as="geometry" />
        </mxCell>
        <mxCell id="Eg83K6MYHJUfDx5m-Tr2-6" value="ECS Fargete Cluster" style="points=[[0,0],[0.25,0],[0.5,0],[0.75,0],[1,0],[1,0.25],[1,0.5],[1,0.75],[1,1],[0.75,1],[0.5,1],[0.25,1],[0,1],[0,0.75],[0,0.5],[0,0.25]];outlineConnect=0;gradientColor=none;html=1;whiteSpace=wrap;fontSize=12;fontStyle=0;container=1;pointerEvents=0;collapsible=0;recursiveResize=0;shape=mxgraph.aws4.group;grIcon=mxgraph.aws4.group_ec2_instance_contents;strokeColor=#D86613;fillColor=none;verticalAlign=top;align=left;spacingLeft=30;fontColor=#D86613;dashed=0;" vertex="1" parent="Eg83K6MYHJUfDx5m-Tr2-2">
          <mxGeometry x="30" y="48" width="350" height="212" as="geometry" />
        </mxCell>
        <mxCell id="Eg83K6MYHJUfDx5m-Tr2-8" value="ECS Develop Service" style="sketch=0;outlineConnect=0;fontColor=#232F3E;gradientColor=none;fillColor=#D45B07;strokeColor=none;dashed=0;verticalLabelPosition=bottom;verticalAlign=top;align=center;html=1;fontSize=12;fontStyle=0;aspect=fixed;pointerEvents=1;shape=mxgraph.aws4.ecs_service;" vertex="1" parent="Eg83K6MYHJUfDx5m-Tr2-6">
          <mxGeometry x="150.5" y="34" width="39" height="48" as="geometry" />
        </mxCell>
        <mxCell id="Eg83K6MYHJUfDx5m-Tr2-9" value="ECS Testing Service" style="sketch=0;outlineConnect=0;fontColor=#232F3E;gradientColor=none;fillColor=#D45B07;strokeColor=none;dashed=0;verticalLabelPosition=bottom;verticalAlign=top;align=center;html=1;fontSize=12;fontStyle=0;aspect=fixed;pointerEvents=1;shape=mxgraph.aws4.ecs_service;" vertex="1" parent="Eg83K6MYHJUfDx5m-Tr2-6">
          <mxGeometry x="150.5" y="122" width="39" height="48" as="geometry" />
        </mxCell>
        <mxCell id="Eg83K6MYHJUfDx5m-Tr2-22" value="" style="edgeStyle=orthogonalEdgeStyle;html=1;endArrow=block;elbow=vertical;startArrow=block;startFill=1;endFill=1;strokeColor=#545B64;rounded=0;entryX=1.015;entryY=0.188;entryDx=0;entryDy=0;entryPerimeter=0;" edge="1" parent="Eg83K6MYHJUfDx5m-Tr2-6" target="Eg83K6MYHJUfDx5m-Tr2-10">
          <mxGeometry width="100" relative="1" as="geometry">
            <mxPoint x="189.5" y="152" as="sourcePoint" />
            <mxPoint x="289.5" y="152" as="targetPoint" />
            <Array as="points">
              <mxPoint x="262" y="152" />
              <mxPoint x="262" y="-170" />
            </Array>
          </mxGeometry>
        </mxCell>
        <mxCell id="Eg83K6MYHJUfDx5m-Tr2-27" value="4" style="rounded=1;whiteSpace=wrap;html=1;fillColor=#007CBD;strokeColor=none;fontColor=#FFFFFF;fontStyle=1;fontSize=22;labelBackgroundColor=none;" vertex="1" parent="Eg83K6MYHJUfDx5m-Tr2-6">
          <mxGeometry x="62" y="82" width="40" height="38" as="geometry" />
        </mxCell>
        <mxCell id="Eg83K6MYHJUfDx5m-Tr2-3" value="Public subnet" style="points=[[0,0],[0.25,0],[0.5,0],[0.75,0],[1,0],[1,0.25],[1,0.5],[1,0.75],[1,1],[0.75,1],[0.5,1],[0.25,1],[0,1],[0,0.75],[0,0.5],[0,0.25]];outlineConnect=0;gradientColor=none;html=1;whiteSpace=wrap;fontSize=12;fontStyle=0;container=1;pointerEvents=0;collapsible=0;recursiveResize=0;shape=mxgraph.aws4.group;grIcon=mxgraph.aws4.group_security_group;grStroke=0;strokeColor=#248814;fillColor=#E9F3E6;verticalAlign=top;align=left;spacingLeft=30;fontColor=#248814;dashed=0;" vertex="1" parent="Eg83K6MYHJUfDx5m-Tr2-1">
          <mxGeometry x="40" y="40" width="400" height="280" as="geometry" />
        </mxCell>
        <mxCell id="Eg83K6MYHJUfDx5m-Tr2-5" value="Application Load Balancer" style="sketch=0;outlineConnect=0;fontColor=#232F3E;gradientColor=none;fillColor=#4D27AA;strokeColor=none;dashed=0;verticalLabelPosition=top;verticalAlign=bottom;align=center;html=1;fontSize=12;fontStyle=0;aspect=fixed;pointerEvents=1;shape=mxgraph.aws4.application_load_balancer;labelPosition=center;" vertex="1" parent="Eg83K6MYHJUfDx5m-Tr2-3">
          <mxGeometry x="152" y="110" width="78" height="78" as="geometry" />
        </mxCell>
        <mxCell id="Eg83K6MYHJUfDx5m-Tr2-23" value="1" style="rounded=1;whiteSpace=wrap;html=1;fillColor=#007CBD;strokeColor=none;fontColor=#FFFFFF;fontStyle=1;fontSize=22;labelBackgroundColor=none;" vertex="1" parent="Eg83K6MYHJUfDx5m-Tr2-3">
          <mxGeometry x="122" y="218" width="40" height="38" as="geometry" />
        </mxCell>
        <mxCell id="Eg83K6MYHJUfDx5m-Tr2-16" value="" style="edgeStyle=orthogonalEdgeStyle;html=1;endArrow=block;elbow=vertical;startArrow=block;startFill=1;endFill=1;strokeColor=#545B64;rounded=0;" edge="1" parent="Eg83K6MYHJUfDx5m-Tr2-1" source="Eg83K6MYHJUfDx5m-Tr2-5" target="Eg83K6MYHJUfDx5m-Tr2-8">
          <mxGeometry width="100" relative="1" as="geometry">
            <mxPoint x="452" y="210" as="sourcePoint" />
            <mxPoint x="552" y="210" as="targetPoint" />
            <Array as="points">
              <mxPoint x="502" y="189" />
              <mxPoint x="502" y="146" />
            </Array>
          </mxGeometry>
        </mxCell>
        <mxCell id="Eg83K6MYHJUfDx5m-Tr2-19" value="" style="edgeStyle=orthogonalEdgeStyle;html=1;endArrow=block;elbow=vertical;startArrow=block;startFill=1;endFill=1;strokeColor=#545B64;rounded=0;" edge="1" parent="Eg83K6MYHJUfDx5m-Tr2-1" source="Eg83K6MYHJUfDx5m-Tr2-5" target="Eg83K6MYHJUfDx5m-Tr2-9">
          <mxGeometry width="100" relative="1" as="geometry">
            <mxPoint x="422" y="170" as="sourcePoint" />
            <mxPoint x="522" y="170" as="targetPoint" />
            <Array as="points">
              <mxPoint x="502" y="189" />
              <mxPoint x="502" y="234" />
            </Array>
          </mxGeometry>
        </mxCell>
        <mxCell id="Eg83K6MYHJUfDx5m-Tr2-24" value="2" style="rounded=1;whiteSpace=wrap;html=1;fillColor=#007CBD;strokeColor=none;fontColor=#FFFFFF;fontStyle=1;fontSize=22;labelBackgroundColor=none;" vertex="1" parent="Eg83K6MYHJUfDx5m-Tr2-1">
          <mxGeometry x="480" y="100" width="40" height="38" as="geometry" />
        </mxCell>
        <mxCell id="Eg83K6MYHJUfDx5m-Tr2-10" value="ECR Registry" style="outlineConnect=0;dashed=0;verticalLabelPosition=bottom;verticalAlign=top;align=center;html=1;shape=mxgraph.aws3.ecr_registry;fillColor=#F58534;gradientColor=none;" vertex="1" parent="UEzPUAAOIrF-is8g5C7q-2">
          <mxGeometry x="755.5" y="11.5" width="57" height="60" as="geometry" />
        </mxCell>
        <mxCell id="Eg83K6MYHJUfDx5m-Tr2-20" value="" style="edgeStyle=orthogonalEdgeStyle;html=1;endArrow=block;elbow=vertical;startArrow=block;startFill=1;endFill=1;strokeColor=#545B64;rounded=0;exitX=1;exitY=0.5;exitDx=0;exitDy=0;exitPerimeter=0;" edge="1" parent="UEzPUAAOIrF-is8g5C7q-2" source="Eg83K6MYHJUfDx5m-Tr2-10" target="Eg83K6MYHJUfDx5m-Tr2-8">
          <mxGeometry width="100" relative="1" as="geometry">
            <mxPoint x="850" y="45" as="sourcePoint" />
            <mxPoint x="950" y="45" as="targetPoint" />
            <Array as="points">
              <mxPoint x="840" y="42" />
              <mxPoint x="840" y="251" />
            </Array>
          </mxGeometry>
        </mxCell>
        <mxCell id="Eg83K6MYHJUfDx5m-Tr2-26" value="3" style="rounded=1;whiteSpace=wrap;html=1;fillColor=#007CBD;strokeColor=none;fontColor=#FFFFFF;fontStyle=1;fontSize=22;labelBackgroundColor=none;" vertex="1" parent="UEzPUAAOIrF-is8g5C7q-2">
          <mxGeometry x="900" y="33.5" width="40" height="38" as="geometry" />
        </mxCell>
        <mxCell id="-QjtrjUzRDEMRZ5MF8oH-47" value="NextJS Demo" style="text;html=1;resizable=0;points=[];autosize=1;align=left;verticalAlign=top;spacingTop=-4;fontSize=30;fontStyle=1" parent="1" vertex="1">
          <mxGeometry x="12" y="65.5" width="220" height="40" as="geometry" />
        </mxCell>
        <mxCell id="-QjtrjUzRDEMRZ5MF8oH-48" value="AWS Digrama de arquitectura" style="text;html=1;resizable=0;points=[];autosize=1;align=left;verticalAlign=top;spacingTop=-4;fontSize=16" parent="1" vertex="1">
          <mxGeometry x="12" y="115.5" width="240" height="30" as="geometry" />
        </mxCell>
        <mxCell id="SCVMTBWpLvtzJIhz15lM-1" value="" style="line;strokeWidth=2;html=1;fontSize=14;" parent="1" vertex="1">
          <mxGeometry x="8" y="140.5" width="1060" height="10" as="geometry" />
        </mxCell>
        <mxCell id="7OVz4w7n9kzEPWy-4BBC-3" value="" style="rounded=0;whiteSpace=wrap;html=1;fillColor=#EAEDED;fontSize=22;fontColor=#FFFFFF;strokeColor=none;labelBackgroundColor=none;" parent="1" vertex="1">
          <mxGeometry x="1100" y="145.5" width="539" height="358" as="geometry" />
        </mxCell>
        <mxCell id="7OVz4w7n9kzEPWy-4BBC-4" value="1" style="rounded=1;whiteSpace=wrap;html=1;fillColor=#007CBD;strokeColor=none;fontColor=#FFFFFF;fontStyle=1;fontSize=22;labelBackgroundColor=none;" parent="1" vertex="1">
          <mxGeometry x="1118" y="157.5" width="40" height="38" as="geometry" />
        </mxCell>
        <mxCell id="7OVz4w7n9kzEPWy-4BBC-5" value="2" style="rounded=1;whiteSpace=wrap;html=1;fillColor=#007CBD;strokeColor=none;fontColor=#FFFFFF;fontStyle=1;fontSize=22;labelBackgroundColor=none;" parent="1" vertex="1">
          <mxGeometry x="1116.5" y="230.5" width="40" height="38" as="geometry" />
        </mxCell>
        <mxCell id="7OVz4w7n9kzEPWy-4BBC-6" value="3" style="rounded=1;whiteSpace=wrap;html=1;fillColor=#007CBD;strokeColor=none;fontColor=#FFFFFF;fontStyle=1;fontSize=22;labelBackgroundColor=none;" parent="1" vertex="1">
          <mxGeometry x="1118" y="333.5" width="40" height="38" as="geometry" />
        </mxCell>
        <mxCell id="7OVz4w7n9kzEPWy-4BBC-7" value="4" style="rounded=1;whiteSpace=wrap;html=1;fillColor=#007CBD;strokeColor=none;fontColor=#FFFFFF;fontStyle=1;fontSize=22;labelBackgroundColor=none;" parent="1" vertex="1">
          <mxGeometry x="1119" y="412.5" width="40" height="38" as="geometry" />
        </mxCell>
        <mxCell id="7OVz4w7n9kzEPWy-4BBC-13" value="Tenemos un load balancer definido en las subnets publicas de nuestra VPC y estas expuesto a internet.&amp;nbsp;" style="text;html=1;align=left;verticalAlign=top;spacingTop=-4;fontSize=14;labelBackgroundColor=none;whiteSpace=wrap;" parent="1" vertex="1">
          <mxGeometry x="1169.5" y="157" width="449" height="118" as="geometry" />
        </mxCell>
        <mxCell id="7OVz4w7n9kzEPWy-4BBC-14" value="Este Load balancer pasa trafico a ambos ambientes, al ambiente de develop lo pasa por el puerto 80 y al ambiente de testing lo pasa por el puesto 3000. Esto debido a que ambos utilizan el mismo DNS, si tuvieramos un dominio para cada uno ambos pudieran recibir trafico por el 80." style="text;html=1;align=left;verticalAlign=top;spacingTop=-4;fontSize=14;labelBackgroundColor=none;whiteSpace=wrap;" parent="1" vertex="1">
          <mxGeometry x="1169.5" y="230.5" width="450" height="115" as="geometry" />
        </mxCell>
        <mxCell id="7OVz4w7n9kzEPWy-4BBC-15" value="&lt;span&gt;Los servicios de ECS, obtienen la imagen que utilizan desde el ECR.&lt;/span&gt;" style="text;html=1;align=left;verticalAlign=top;spacingTop=-4;fontSize=14;labelBackgroundColor=none;whiteSpace=wrap;" parent="1" vertex="1">
          <mxGeometry x="1169.5" y="333.5" width="450" height="117" as="geometry" />
        </mxCell>
        <mxCell id="7OVz4w7n9kzEPWy-4BBC-16" value="&lt;span&gt;El servicio de ECS estan en la Subnet Privada y no estan expuestos a internet, tienen configurado los target group que le permiten recibir trafico desde el Load Balancer.&lt;/span&gt;" style="text;html=1;align=left;verticalAlign=top;spacingTop=-4;fontSize=14;labelBackgroundColor=none;whiteSpace=wrap;" parent="1" vertex="1">
          <mxGeometry x="1168.5" y="412.5" width="450" height="81" as="geometry" />
        </mxCell>
        <mxCell id="Eg83K6MYHJUfDx5m-Tr2-12" value="internet traffic" style="outlineConnect=0;dashed=0;verticalLabelPosition=bottom;verticalAlign=top;align=center;html=1;shape=mxgraph.aws3.internet;fillColor=#D2D3D3;gradientColor=none;" vertex="1" parent="1">
          <mxGeometry x="232" y="710" width="79.5" height="79.5" as="geometry" />
        </mxCell>
        <mxCell id="Eg83K6MYHJUfDx5m-Tr2-14" value="" style="edgeStyle=orthogonalEdgeStyle;html=1;endArrow=block;elbow=vertical;startArrow=block;startFill=1;endFill=1;strokeColor=#545B64;rounded=0;" edge="1" parent="1" source="Eg83K6MYHJUfDx5m-Tr2-5">
          <mxGeometry width="100" relative="1" as="geometry">
            <mxPoint x="410" y="740" as="sourcePoint" />
            <mxPoint x="269" y="710" as="targetPoint" />
          </mxGeometry>
        </mxCell>
      </root>
    </mxGraphModel>
  </diagram>
</mxfile>
